<svg xmlns="http://www.w3.org/2000/svg" xml:space="preserve" style="fill-rule:evenodd;clip-rule:evenodd;stroke-linejoin:round;stroke-miterlimit:2" viewBox="0 0 143 32"><path d="M0 0h143v32H0z" style="fill:none"/><path d="M0 0h1600v900H0z" style="fill:none" transform="matrix(.01884 0 0 .03349 2.785 1)"/><path d="M511.896 235.497 410.18 242.01a39.842 39.842 0 0 0-37.112 43.559l7.763 80.994 80.994 7.762a39.837 39.837 0 0 0 43.558-37.111l6.513-101.717Z" style="fill:#27272a" transform="matrix(.2016 0 0 .2016 -70.958 -45.799)"/><g transform="matrix(.2016 0 0 .2016 -70.958 -45.799)"><clipPath id="a"><path d="M511.896 235.497 410.18 242.01a39.842 39.842 0 0 0-37.112 43.559l7.763 80.994 80.994 7.762a39.837 39.837 0 0 0 43.558-37.111l6.513-101.717Z"/></clipPath><g clip-path="url(#a)"><path d="M272.576 225.439v-16.04h5.721c1.675 0 3.137.34 4.385 1.02 1.249.681 2.218 1.623 2.906 2.827.688 1.204 1.032 2.591 1.032 4.161 0 1.571-.344 2.958-1.032 4.162-.688 1.204-1.657 2.15-2.906 2.838-1.248.688-2.71 1.032-4.385 1.032h-5.721Zm3.724-3.163h1.997c1.376 0 2.452-.438 3.23-1.313s1.167-2.06 1.167-3.556c0-1.48-.389-2.658-1.167-3.533s-1.854-1.312-3.23-1.312H276.3v9.714Z" style="fill:#ffe60f;fill-rule:nonzero" transform="scale(8.91875) rotate(-5.087 -1894.251 2680.366)"/></g></g><circle cx="115.729" cy="208.511" r="22.475" style="fill:#ffe60f" transform="matrix(.1264 0 0 .1264 -8.324 1.26)"/><path d="m64.495 17.247.156-.804c-.488.664-1.132.996-1.932.996-.704 0-1.252-.234-1.644-.702-.392-.468-.588-1.094-.588-1.878 0-.552.088-1.066.264-1.542.176-.476.418-.892.726-1.248a3.374 3.374 0 0 1 1.074-.834c.408-.2.844-.3 1.308-.3.416 0 .77.082 1.062.246.292.164.51.398.654.702l.696-3.276h1.956l-1.836 8.64h-1.896Zm-1.98-2.664c0 .392.094.696.282.912.188.216.454.324.798.324.272 0 .536-.102.792-.306.256-.204.46-.478.612-.822.032-.192.058-.362.078-.51.02-.148.03-.27.03-.366 0-.4-.086-.71-.258-.93-.172-.22-.41-.33-.714-.33-.312 0-.59.094-.834.282a1.923 1.923 0 0 0-.576.744c-.14.308-.21.642-.21 1.002ZM68.191 14.583c0-.496.092-.964.276-1.404.184-.44.436-.828.756-1.164.32-.336.69-.6 1.11-.792.42-.192.87-.288 1.35-.288.944 0 1.68.252 2.208.756.528.504.792 1.204.792 2.1 0 .496-.092.964-.276 1.404-.184.44-.436.828-.756 1.164-.32.336-.69.6-1.11.792-.42.192-.87.288-1.35.288-.944 0-1.68-.252-2.208-.756-.528-.504-.792-1.204-.792-2.1Zm3 1.224c.264 0 .508-.092.732-.276.224-.184.404-.43.54-.738s.204-.642.204-1.002c0-.376-.088-.674-.264-.894-.176-.22-.416-.33-.72-.33a1.13 1.13 0 0 0-.732.276 1.966 1.966 0 0 0-.54.732 2.44 2.44 0 0 0-.204 1.008c0 .376.088.674.264.894.176.22.416.33.72.33ZM75.187 17.247l1.296-6.12h1.944l-.156.732c.224-.304.496-.534.816-.69.32-.156.632-.234.936-.234.84 0 1.292.452 1.356 1.356.24-.44.546-.776.918-1.008a2.237 2.237 0 0 1 1.206-.348c.504 0 .888.16 1.152.48.264.32.396.772.396 1.356 0 .304-.032.616-.096.936l-.756 3.54h-1.956l.768-3.612c.016-.096.028-.178.036-.246.008-.068.012-.126.012-.174 0-.208-.044-.37-.132-.486a.44.44 0 0 0-.372-.174c-.28 0-.528.132-.744.396-.216.264-.372.632-.468 1.104l-.672 3.192h-1.956l.768-3.612c.016-.096.028-.178.036-.246.008-.068.012-.126.012-.174 0-.208-.044-.37-.132-.486a.44.44 0 0 0-.372-.174c-.28 0-.528.132-.744.396-.216.264-.372.632-.468 1.104l-.672 3.192h-1.956ZM89.335 17.247l.156-.708a2.55 2.55 0 0 1-.834.666 2.312 2.312 0 0 1-1.038.234c-.376 0-.714-.076-1.014-.228a1.72 1.72 0 0 1-.708-.654 1.873 1.873 0 0 1-.258-.99c0-.664.286-1.188.858-1.572.572-.384 1.39-.576 2.454-.576h1.056c.008-.32-.068-.568-.228-.744-.16-.176-.42-.264-.78-.264-.264 0-.548.054-.852.162a2.071 2.071 0 0 0-.804.522l-.876-1.2c.336-.328.752-.57 1.248-.726.496-.156 1-.234 1.512-.234.84 0 1.482.202 1.926.606.444.404.666.95.666 1.638 0 .24-.032.508-.096.804l-.696 3.264h-1.692Zm-.984-1.212c.272 0 .526-.09.762-.27.236-.18.43-.426.582-.738l.096-.444h-.9c-.416 0-.74.072-.972.216-.232.144-.348.34-.348.588 0 .192.068.348.204.468.136.12.328.18.576.18ZM93.835 9.459c0-.352.128-.65.384-.894s.572-.366.948-.366c.296 0 .536.09.72.27.184.18.276.41.276.69 0 .352-.128.65-.384.894a1.321 1.321 0 0 1-.948.366c-.296 0-.536-.09-.72-.27a.924.924 0 0 1-.276-.69Zm-1.488 7.788 1.296-6.12h1.956l-1.296 6.12h-1.956ZM95.707 17.247l1.296-6.12h1.944l-.192.888c.24-.336.53-.6.87-.792.34-.192.702-.288 1.086-.288.472 0 .854.174 1.146.522.292.348.438.806.438 1.374 0 .352-.052.772-.156 1.26l-.672 3.156h-1.956l.66-3.156c.04-.184.07-.348.09-.492.02-.144.03-.256.03-.336 0-.224-.052-.398-.156-.522-.104-.124-.252-.186-.444-.186-.336 0-.628.168-.876.504-.248.336-.436.804-.564 1.404l-.588 2.784h-1.956ZM104.287 9.459c0-.352.128-.65.384-.894s.572-.366.948-.366c.296 0 .536.09.72.27.184.18.276.41.276.69 0 .352-.128.65-.384.894a1.321 1.321 0 0 1-.948.366c-.296 0-.536-.09-.72-.27a.924.924 0 0 1-.276-.69Zm-1.488 7.788 1.296-6.12h1.956l-1.296 6.12h-1.956ZM105.415 17.247l2.844-3.18-1.536-2.94h2.112l.744 1.692 1.344-1.692h2.256l-2.772 3.084 1.584 3.036h-2.088l-.816-1.812-1.416 1.812h-2.256Z" style="fill:#27272a;fill-rule:nonzero" transform="translate(-69.08 -9.328) scale(1.86949)"/></svg>