<svg xmlns="http://www.w3.org/2000/svg" xml:space="preserve" style="fill-rule:evenodd;clip-rule:evenodd;stroke-linecap:round;stroke-linejoin:round;stroke-miterlimit:1.5" viewBox="0 0 256 128"><path d="M0 0h256v128H0z" style="fill:none"/><g transform="matrix(1.71303 0 0 1.71625 -536.483 -34.668)"><path d="M414.295 39.968c0-.841-.684-1.523-1.527-1.523h-49.74c-.842 0-1.526.682-1.526 1.523v35.045c0 .841.684 1.523 1.526 1.523h49.74c.843 0 1.527-.682 1.527-1.523V39.968Z" style="fill:none"/><clipPath id="a"><path d="M414.295 39.968c0-.841-.684-1.523-1.527-1.523h-49.74c-.842 0-1.526.682-1.526 1.523v35.045c0 .841.684 1.523 1.526 1.523h49.74c.843 0 1.527-.682 1.527-1.523V39.968Z"/></clipPath><g clip-path="url(#a)"><path d="m362.433 70.656 13.972-17.021a.698.698 0 0 1 1.093.018l11.882 15.466a.7.7 0 0 0 1.041.075l10.412-10.13a.696.696 0 0 1 .995.021l11.739 12.444v3.962l-1.233.702h-48.807l-1.094-.702v-4.835Z" style="fill:#6f6f6f" transform="matrix(1.03243 0 0 1.0305 -12.686 -1.98)"/></g><path d="M414.295 39.968c0-.841-.684-1.523-1.527-1.523h-49.74c-.842 0-1.526.682-1.526 1.523v35.045c0 .841.684 1.523 1.526 1.523h49.74c.843 0 1.527-.682 1.527-1.523V39.968Z" style="fill:none;stroke:#6f6f6f;stroke-width:.85px"/></g><circle cx="400.378" cy="48.245" r="3.528" style="fill:#6f6f6f" transform="matrix(1.65396 0 0 1.65396 -517.875 -32.903)"/></svg>