<svg xmlns="http://www.w3.org/2000/svg" xml:space="preserve" style="fill-rule:evenodd;clip-rule:evenodd;stroke-linejoin:round;stroke-miterlimit:2" viewBox="0 0 35 32"><path d="M0 0h35v32H0z" style="fill:none"/><path d="M0 0h1600v900H0z" style="fill:none" transform="matrix(.01884 0 0 .03349 2.431 .931)"/><path d="M511.896 235.497 410.18 242.01a39.842 39.842 0 0 0-37.112 43.559l7.763 80.994 80.994 7.762a39.837 39.837 0 0 0 43.558-37.111l6.513-101.717Z" style="fill:#27272a" transform="matrix(.2016 0 0 .2016 -71.312 -45.867)"/><g transform="matrix(.2016 0 0 .2016 -71.312 -45.867)"><clipPath id="a"><path d="M511.896 235.497 410.18 242.01a39.842 39.842 0 0 0-37.112 43.559l7.763 80.994 80.994 7.762a39.837 39.837 0 0 0 43.558-37.111l6.513-101.717Z"/></clipPath><g clip-path="url(#a)"><path d="M272.576 225.439v-16.04h5.721c1.675 0 3.137.34 4.385 1.02 1.249.681 2.218 1.623 2.906 2.827.688 1.204 1.032 2.591 1.032 4.161 0 1.571-.344 2.958-1.032 4.162-.688 1.204-1.657 2.15-2.906 2.838-1.248.688-2.71 1.032-4.385 1.032h-5.721Zm3.724-3.163h1.997c1.376 0 2.452-.438 3.23-1.313s1.167-2.06 1.167-3.556c0-1.48-.389-2.658-1.167-3.533s-1.854-1.312-3.23-1.312H276.3v9.714Z" style="fill:#26e86a;fill-rule:nonzero" transform="scale(8.91875) rotate(-5.087 -1894.251 2680.366)"/></g></g><circle cx="115.729" cy="208.511" r="22.475" style="fill:#26e86a" transform="matrix(.1264 0 0 .1264 -8.678 1.191)"/></svg>